<?xml version="1.0" standalone="no"?>
<!DOCTYPE svg PUBLIC "-//W3C//DTD SVG 20010904//EN"
 "http://www.w3.org/TR/2001/REC-SVG-20010904/DTD/svg10.dtd">
<svg version="1.2" xmlns="http://www.w3.org/2000/svg"
 width="300.000000pt" height="300.000000pt" viewBox="0 0 300.000000 300.000000"
 preserveAspectRatio="xMidYMid meet" baseProfile="tiny">
<metadata>
Created by potrace 1.10, written by Peter Selinger 2001-2011
</metadata>
<g transform="translate(0.000000,300.000000) scale(0.100000,-0.100000)"
fill="#000000" stroke="none">
<path d="M1405 2151 c-152 -25 -363 -121 -422 -193 -18 -23 -48 -28 -138 -26
-16 0 -40 0 -52 0 -46 -2 -100 -1 -178 3 -48 2 -85 -1 -93 -7 -9 -8 -16 -8
-24 0 -34 34 -88 -3 -88 -60 0 -46 29 -73 67 -64 27 6 62 12 112 18 45 6 33
-20 -17 -36 -106 -35 -156 -145 -122 -268 15 -54 76 -103 158 -127 82 -25 106
-46 77 -67 -22 -16 -35 -17 -130 -4 -64 8 -72 7 -92 -12 -18 -17 -23 -33 -23
-70 0 -95 31 -113 200 -113 124 0 167 14 217 67 74 79 70 232 -7 302 -34 31
-132 76 -164 76 -18 0 -41 28 -32 38 9 8 117 6 153 -3 62 -15 99 99 52 159
-20 26 -20 28 -4 46 13 15 22 17 36 10 30 -16 48 -11 63 18 8 15 15 23 15 17
0 -5 -6 -21 -14 -35 -12 -20 -14 -85 -15 -331 0 -295 1 -307 21 -333 18 -23
28 -26 78 -26 47 0 61 4 79 23 12 13 22 33 22 45 0 37 15 32 59 -19 l42 -49
73 0 c53 0 77 4 86 15 16 19 34 19 50 0 8 -10 31 -15 69 -15 47 0 61 4 79 23
21 22 22 31 22 243 0 183 -3 223 -16 242 -14 21 -14 25 7 58 25 42 21 95 -10
128 -19 20 -20 28 -11 80 5 32 11 60 13 62 13 13 173 -48 257 -98 l65 -39 -3
-272 c-2 -149 -5 -274 -8 -276 -2 -3 -14 5 -26 17 -21 21 -22 31 -26 268 -4
224 -6 248 -23 265 -27 27 -118 26 -150 0 l-24 -19 0 -295 c0 -283 1 -297 21
-323 38 -52 68 -67 134 -68 59 -1 64 1 91 33 l28 34 27 -26 c45 -45 126 -59
178 -32 24 13 35 14 59 4 47 -20 215 -16 257 5 75 39 103 84 103 166 0 72 -22
113 -81 150 l-47 30 31 0 c44 0 72 27 80 77 6 38 3 45 -24 73 -30 29 -33 30
-124 30 -139 -1 -203 -37 -228 -131 -24 -89 31 -177 129 -205 71 -21 49 -36
-40 -27 -45 4 -68 2 -73 -6 -10 -16 -32 -14 -50 5 -14 13 -16 51 -16 259 l0
243 -31 26 c-23 20 -30 32 -26 48 8 29 -18 83 -51 105 -93 62 -209 117 -302
142 -84 24 -230 34 -305 22z m286 -52 c127 -32 313 -130 339 -179 14 -26 -3
-58 -37 -71 -22 -8 -35 -3 -96 36 -246 158 -493 162 -753 13 -46 -26 -90 -48
-97 -48 -25 0 -57 31 -57 56 0 31 55 72 175 130 176 86 352 106 526 63z m-239
-191 c4 -51 2 -67 -12 -83 -35 -40 -34 -96 2 -147 10 -14 10 -21 -4 -35 -16
-16 -19 -16 -39 3 -17 15 -36 19 -91 19 l-70 0 -42 -48 c-23 -27 -45 -45 -49
-41 -4 4 -7 56 -7 116 0 60 -5 118 -10 128 -8 16 -4 23 22 43 45 33 99 57 188
83 110 33 107 34 112 -38z m113 7 l0 -40 -45 0 -45 0 -3 43 -3 43 48 -3 48 -3
0 -40z m-1075 -21 c0 -14 -3 -14 -15 -4 -8 7 -15 9 -15 5 0 -4 10 -15 22 -25
19 -15 20 -20 9 -34 -17 -20 -35 -20 -51 -1 -17 20 -5 32 15 15 8 -7 15 -9 15
-5 0 4 -10 15 -22 24 -25 21 -17 41 18 41 15 0 24 -6 24 -16z m103 2 c4 -11
-45 -66 -59 -66 -2 0 -4 18 -4 40 0 37 2 40 29 40 16 0 31 -6 34 -14z m93 -28
c1 -39 -9 -50 -20 -23 -3 8 -10 15 -16 15 -5 0 -10 -7 -10 -15 0 -8 -5 -15
-11 -15 -7 0 -9 9 -5 23 3 12 6 30 6 40 0 14 6 18 27 15 24 -3 27 -8 29 -40z
m56 2 c2 -28 0 -40 -9 -40 -8 0 -13 14 -13 40 0 22 4 40 9 40 5 0 11 -18 13
-40z m73 18 l8 -23 4 23 c7 37 23 25 23 -18 0 -45 -20 -54 -38 -17 l-11 22 0
-22 c-2 -41 -21 -24 -21 17 0 45 22 56 35 18z m135 12 c0 -5 -4 -10 -10 -10
-5 0 -10 -13 -10 -30 0 -20 -5 -30 -15 -30 -10 0 -15 10 -15 30 0 17 -4 30
-10 30 -5 0 -10 5 -10 10 0 6 16 10 35 10 19 0 35 -4 35 -10z m621 -90 c14 -8
19 -21 19 -53 0 -55 -13 -67 -70 -67 -25 0 -51 5 -58 12 -17 17 -15 84 4 102
18 18 76 21 105 6z m509 -260 c-1 -278 1 -290 47 -290 23 0 24 -3 21 -47 -3
-47 -3 -48 -40 -51 -20 -2 -55 2 -77 8 -69 18 -71 28 -71 354 l0 285 58 3 c31
2 58 2 60 2 2 -1 3 -120 2 -264z m-978 89 c-2 -105 0 -175 6 -181 12 -12 23 0
89 97 l48 70 73 3 c71 3 86 -4 57 -28 -8 -7 -44 -52 -80 -100 l-66 -88 85
-121 86 -121 -78 0 -77 0 -60 96 c-33 53 -64 95 -70 95 -6 -1 -10 -40 -10 -96
l0 -95 -62 0 -63 0 0 320 0 320 63 0 62 0 -3 -171z m730 -101 l3 -273 28 -3
c27 -3 28 -6 25 -50 l-3 -47 -63 1 c-55 1 -67 5 -90 28 l-27 26 -3 295 -3 295
65 0 66 0 2 -272z m-1014 213 c21 -5 24 -13 26 -59 l1 -53 -45 8 c-25 5 -74 8
-109 7 -50 0 -66 -4 -77 -19 -34 -46 -8 -87 67 -104 61 -14 129 -44 156 -70
40 -38 44 -178 6 -230 -36 -49 -87 -66 -198 -66 -55 0 -117 4 -137 8 l-38 8 0
59 0 60 26 -10 c14 -6 62 -12 107 -16 104 -7 131 5 135 59 4 50 -6 61 -76 81
-142 41 -184 81 -184 173 0 128 59 173 227 172 50 -1 101 -4 113 -8z m1680
-126 c7 -3 12 -23 12 -56 0 -45 -2 -50 -17 -44 -10 5 -47 10 -83 13 -51 3 -69
1 -79 -12 -25 -30 -9 -50 59 -72 36 -11 75 -26 88 -33 36 -19 55 -67 50 -129
-4 -46 -10 -60 -36 -83 -42 -38 -124 -54 -220 -43 l-74 9 -2 53 c-1 49 0 53
19 47 11 -3 50 -8 86 -12 77 -7 109 6 109 42 0 30 -26 48 -103 69 -32 9 -66
25 -77 36 -44 44 -33 153 20 192 14 10 45 22 70 27 41 8 146 5 178 -4z m-915
-228 l2 -227 -65 0 -65 0 3 230 3 231 60 -3 60 -3 2 -228z m-163 8 c0 -99 -4
-175 -9 -175 -9 0 -117 148 -127 173 -5 14 112 177 127 177 5 0 9 -79 9 -175z"/>
</g>
</svg>
