<svg width="640" height="480" xmlns="http://www.w3.org/2000/svg" xmlns:svg="http://www.w3.org/2000/svg" xmlns:xlink="http://www.w3.org/1999/xlink">
 <!-- Created with SVG-edit - https://github.com/SVG-Edit/svgedit-->
 <title>Thenextlevelskill</title>
 <defs>
  <symbol height="300.000000pt" id="svg_4" preserveAspectRatio="xMidYMid meet" version="1" viewBox="0 0 300.000000 300.000000" width="300.000000pt" xmlns="http://www.w3.org/2000/svg">
   <metadata>Created by potrace 1.10, written by Peter Selinger 2001-2011</metadata>
   <g fill="#000000" transform="translate(0.000000,300.000000) scale(0.100000,-0.100000)">
    <path d="m1405,2151c-152,-25 -363,-121 -422,-193c-18,-23 -48,-28 -138,-26c-16,0 -40,0 -52,0c-46,-2 -100,-1 -178,3c-48,2 -85,-1 -93,-7c-9,-8 -16,-8 -24,0c-34,34 -88,-3 -88,-60c0,-46 29,-73 67,-64c27,6 62,12 112,18c45,6 33,-20 -17,-36c-106,-35 -156,-145 -122,-268c15,-54 76,-103 158,-127c82,-25 106,-46 77,-67c-22,-16 -35,-17 -130,-4c-64,8 -72,7 -92,-12c-18,-17 -23,-33 -23,-70c0,-95 31,-113 200,-113c124,0 167,14 217,67c74,79 70,232 -7,302c-34,31 -132,76 -164,76c-18,0 -41,28 -32,38c9,8 117,6 153,-3c62,-15 99,99 52,159c-20,26 -20,28 -4,46c13,15 22,17 36,10c30,-16 48,-11 63,18c8,15 15,23 15,17c0,-5 -6,-21 -14,-35c-12,-20 -14,-85 -15,-331c0,-295 1,-307 21,-333c18,-23 28,-26 78,-26c47,0 61,4 79,23c12,13 22,33 22,45c0,37 15,32 59,-19l42,-49l73,0c53,0 77,4 86,15c16,19 34,19 50,0c8,-10 31,-15 69,-15c47,0 61,4 79,23c21,22 22,31 22,243c0,183 -3,223 -16,242c-14,21 -14,25 7,58c25,42 21,95 -10,128c-19,20 -20,28 -11,80c5,32 11,60 13,62c13,13 173,-48 257,-98l65,-39l-3,-272c-2,-149 -5,-274 -8,-276c-2,-3 -14,5 -26,17c-21,21 -22,31 -26,268c-4,224 -6,248 -23,265c-27,27 -118,26 -150,0l-24,-19l0,-295c0,-283 1,-297 21,-323c38,-52 68,-67 134,-68c59,-1 64,1 91,33l28,34l27,-26c45,-45 126,-59 178,-32c24,13 35,14 59,4c47,-20 215,-16 257,5c75,39 103,84 103,166c0,72 -22,113 -81,150l-47,30l31,0c44,0 72,27 80,77c6,38 3,45 -24,73c-30,29 -33,30 -124,30c-139,-1 -203,-37 -228,-131c-24,-89 31,-177 129,-205c71,-21 49,-36 -40,-27c-45,4 -68,2 -73,-6c-10,-16 -32,-14 -50,5c-14,13 -16,51 -16,259l0,243l-31,26c-23,20 -30,32 -26,48c8,29 -18,83 -51,105c-93,62 -209,117 -302,142c-84,24 -230,34 -305,22zm286,-52c127,-32 313,-130 339,-179c14,-26 -3,-58 -37,-71c-22,-8 -35,-3 -96,36c-246,158 -493,162 -753,13c-46,-26 -90,-48 -97,-48c-25,0 -57,31 -57,56c0,31 55,72 175,130c176,86 352,106 526,63zm-239,-191c4,-51 2,-67 -12,-83c-35,-40 -34,-96 2,-147c10,-14 10,-21 -4,-35c-16,-16 -19,-16 -39,3c-17,15 -36,19 -91,19l-70,0l-42,-48c-23,-27 -45,-45 -49,-41c-4,4 -7,56 -7,116c0,60 -5,118 -10,128c-8,16 -4,23 22,43c45,33 99,57 188,83c110,33 107,34 112,-38zm113,7l0,-40l-45,0l-45,0l-3,43l-3,43l48,-3l48,-3l0,-40zm-1075,-21c0,-14 -3,-14 -15,-4c-8,7 -15,9 -15,5c0,-4 10,-15 22,-25c19,-15 20,-20 9,-34c-17,-20 -35,-20 -51,-1c-17,20 -5,32 15,15c8,-7 15,-9 15,-5c0,4 -10,15 -22,24c-25,21 -17,41 18,41c15,0 24,-6 24,-16zm103,2c4,-11 -45,-66 -59,-66c-2,0 -4,18 -4,40c0,37 2,40 29,40c16,0 31,-6 34,-14zm93,-28c1,-39 -9,-50 -20,-23c-3,8 -10,15 -16,15c-5,0 -10,-7 -10,-15c0,-8 -5,-15 -11,-15c-7,0 -9,9 -5,23c3,12 6,30 6,40c0,14 6,18 27,15c24,-3 27,-8 29,-40zm56,2c2,-28 0,-40 -9,-40c-8,0 -13,14 -13,40c0,22 4,40 9,40c5,0 11,-18 13,-40zm73,18l8,-23l4,23c7,37 23,25 23,-18c0,-45 -20,-54 -38,-17l-11,22l0,-22c-2,-41 -21,-24 -21,17c0,45 22,56 35,18zm135,12c0,-5 -4,-10 -10,-10c-5,0 -10,-13 -10,-30c0,-20 -5,-30 -15,-30c-10,0 -15,10 -15,30c0,17 -4,30 -10,30c-5,0 -10,5 -10,10c0,6 16,10 35,10c19,0 35,-4 35,-10zm621,-90c14,-8 19,-21 19,-53c0,-55 -13,-67 -70,-67c-25,0 -51,5 -58,12c-17,17 -15,84 4,102c18,18 76,21 105,6zm509,-260c-1,-278 1,-290 47,-290c23,0 24,-3 21,-47c-3,-47 -3,-48 -40,-51c-20,-2 -55,2 -77,8c-69,18 -71,28 -71,354l0,285l58,3c31,2 58,2 60,2c2,-1 3,-120 2,-264zm-978,89c-2,-105 0,-175 6,-181c12,-12 23,0 89,97l48,70l73,3c71,3 86,-4 57,-28c-8,-7 -44,-52 -80,-100l-66,-88l85,-121l86,-121l-78,0l-77,0l-60,96c-33,53 -64,95 -70,95c-6,-1 -10,-40 -10,-96l0,-95l-62,0l-63,0l0,320l0,320l63,0l62,0l-3,-171zm730,-101l3,-273l28,-3c27,-3 28,-6 25,-50l-3,-47l-63,1c-55,1 -67,5 -90,28l-27,26l-3,295l-3,295l65,0l66,0l2,-272zm-1014,213c21,-5 24,-13 26,-59l1,-53l-45,8c-25,5 -74,8 -109,7c-50,0 -66,-4 -77,-19c-34,-46 -8,-87 67,-104c61,-14 129,-44 156,-70c40,-38 44,-178 6,-230c-36,-49 -87,-66 -198,-66c-55,0 -117,4 -137,8l-38,8l0,59l0,60l26,-10c14,-6 62,-12 107,-16c104,-7 131,5 135,59c4,50 -6,61 -76,81c-142,41 -184,81 -184,173c0,128 59,173 227,172c50,-1 101,-4 113,-8zm1680,-126c7,-3 12,-23 12,-56c0,-45 -2,-50 -17,-44c-10,5 -47,10 -83,13c-51,3 -69,1 -79,-12c-25,-30 -9,-50 59,-72c36,-11 75,-26 88,-33c36,-19 55,-67 50,-129c-4,-46 -10,-60 -36,-83c-42,-38 -124,-54 -220,-43l-74,9l-2,53c-1,49 0,53 19,47c11,-3 50,-8 86,-12c77,-7 109,6 109,42c0,30 -26,48 -103,69c-32,9 -66,25 -77,36c-44,44 -33,153 20,192c14,10 45,22 70,27c41,8 146,5 178,-4zm-915,-228l2,-227l-65,0l-65,0l3,230l3,231l60,-3l60,-3l2,-228zm-163,8c0,-99 -4,-175 -9,-175c-9,0 -117,148 -127,173c-5,14 112,177 127,177c5,0 9,-79 9,-175z"/>
   </g>
  </symbol>
 </defs>
 <g class="layer" display="inline">
  <title>Layer 1</title>
  <use id="svg_5" transform="matrix(2.03821, 0, 0, 2.18583, -82.2666, -185.942)" xlink:href="#svg_4"/>
 </g>
</svg>
